# xmcd
#
# Track frame offsets:
#	150
#	23755
#	43692
#	66765
#	84890
#	97730
#	123502
#	139835
#	159317
#
# Disc length: 2483 seconds
#
# Revision: 4
# Processed by: cddbd v1.5.2PL0 Copyright (c) Steve Scherf et al.
# Submitted via: EasyCDDAExtractor 2010.6.0.0
#
DISCID=6609b109
DTITLE=Jimmy Johnson - Bar Room Preacher
DYEAR=1983
DGENRE=Blues
TTITLE0=You Don't Know What Love Is
TTITLE1=Little By Little
TTITLE2=When My First Wife Quit Me
TTITLE3=Chicken Heads
TTITLE4=I Have The Same Old Blues
TTITLE5=Cold, Cold Feeling
TTITLE6=Happy Home
TTITLE7=Heap See
TTITLE8=Missing Link
EXTD=
EXTT0=
EXTT1=
EXTT2=
EXTT3=
EXTT4=
EXTT5=
EXTT6=
EXTT7=
EXTT8=
PLAYORDER=
